<?xml version="1.0" encoding="UTF-8" standalone="no"?>
<svg xmlns:svg="http://www.w3.org/2000/svg" xmlns="http://www.w3.org/2000/svg" version="1.0" width="600" height="155">
	<path id="s" fill="#007C59" d="M 41.379826,41.043352 L 41.379826,114.51115 L 79.100696,114.51115 L 114.90084,114.51115 L 114.90084,41.043352 L 73.978768,41.043352 L 72.271458,41.043352 L 41.379826,41.043352 z M 66.562643,53.634784 L 73.391881,53.634784 L 74.565655,53.634784 L 82.141841,53.634784 C 82.141841,53.631369 82.141843,55.662217 82.141841,55.662217 C 82.141841,60.102939 85.755791,63.718599 90.198209,63.718599 C 94.640629,63.718599 98.254577,60.104645 98.254577,55.662217 L 98.254577,53.634784 L 102.25608,53.634784 L 102.25608,61.691166 C 102.25608,68.3531 96.861837,73.749062 90.198209,73.749062 C 83.536286,73.749062 78.140336,68.354808 78.140336,61.691166 L 78.140336,56.675935 C 72.864749,56.675935 68.590072,60.950617 68.590072,66.226214 C 68.590072,71.163763 72.32225,75.222902 77.12662,75.723142 L 90.038148,76.790213 L 90.091502,76.790213 C 96.853555,76.996725 102.25608,82.516703 102.25608,89.32829 C 102.25608,96.270225 96.658242,101.91973 89.718029,101.91972 L 78.247041,101.91972 L 74.138829,101.91972 C 74.138829,101.92314 74.138827,99.892289 74.138829,99.892289 C 74.138829,95.449861 70.526589,91.835905 66.082461,91.835905 C 61.641749,91.835905 58.026093,95.449861 58.026095,99.892289 L 58.026095,101.91972 L 54.024588,101.91972 L 54.024588,93.863341 C 54.024588,87.199698 59.418832,81.805442 66.082461,81.805444 C 72.746089,81.805444 78.140336,87.199694 78.140336,93.863341 L 78.140336,98.878571 C 83.415921,98.878571 87.690597,94.603889 87.690597,89.32829 C 87.690597,84.22684 83.67074,80.028986 78.620516,79.778011 L 65.708988,78.764293 C 59.173405,78.316977 54.026294,72.876196 54.024588,66.226214 C 54.024588,59.285989 59.620722,53.634784 66.562643,53.634784 z" />
	<g id="universite">
		<path d="M 158.0659,41.023291 L 158.0659,41.658412 C 156.78542,41.745484 155.95396,41.958899 155.57323,42.300361 C 155.1925,42.641824 155.00299,43.423773 155.00299,44.646209 L 155.00299,55.345938 C 155.00299,57.099349 155.24372,58.466905 155.72176,59.445195 C 156.61639,61.231046 158.31175,62.12397 160.80784,62.12397 C 163.54295,62.12397 165.38172,61.20885 166.31903,59.382025 C 166.84318,58.359344 167.10269,56.781789 167.10269,54.651061 L 167.10269,45.952303 C 167.10269,44.135722 166.88586,42.995237 166.4505,42.532556 C 166.01342,42.068167 165.18538,41.776216 163.96636,41.656704 L 163.96636,41.023291 L 171.69706,41.023291 L 171.69706,41.658412 C 170.3995,41.800118 169.55268,42.112557 169.15658,42.597433 C 168.76049,43.080603 168.55902,44.198893 168.55902,45.952303 L 168.55902,54.64594 C 168.55902,56.952519 168.20561,58.75032 167.49708,60.04617 C 166.19099,62.427871 163.70685,63.617868 160.04979,63.617868 C 156.43371,63.617868 153.97348,62.443236 152.66568,60.090561 C 151.95715,58.828855 151.60373,57.162519 151.60373,55.094963 L 151.60373,44.644501 C 151.60373,43.432309 151.41593,42.655482 151.03861,42.31402 C 150.66301,41.972557 149.8435,41.754021 148.57838,41.656704 L 148.57838,41.023291 L 158.0659,41.023291 z" />
		<path d="M 172.63266,62.533725 C 174.01559,62.392017 174.90168,62.07958 175.29436,61.596411 C 175.68533,61.111533 175.88338,59.989828 175.88338,58.227881 L 175.88338,43.500602 L 175.42582,42.962798 C 174.93582,42.387434 174.51924,42.030606 174.17778,41.895728 C 173.83461,41.759143 173.319,41.682314 172.63437,41.658412 L 172.63437,41.023291 L 178.318,41.023291 L 191.30722,57.08569 L 191.30722,45.936937 C 191.30722,44.103283 191.03576,42.909872 190.48942,42.354995 C 190.12747,41.998167 189.33015,41.764265 188.09748,41.654997 L 188.09748,41.023291 L 195.94085,41.023291 L 195.94085,41.658412 C 194.67232,41.789875 193.8255,42.100605 193.40038,42.590604 C 192.97867,43.08231 192.76697,44.204015 192.76697,45.959132 L 192.76697,63.582015 L 192.20014,63.582015 L 177.33972,45.2045 L 177.33972,58.226175 C 177.33972,60.053 177.60435,61.246411 178.14045,61.799579 C 178.48874,62.158117 179.26727,62.403969 180.47775,62.533725 L 180.47775,63.168845 L 172.63266,63.168845 L 172.63266,62.533725 z" />
		<path d="M 197.15987,62.533725 C 198.50523,62.436407 199.37768,62.234945 199.77376,61.929335 C 200.17156,61.622019 200.37303,60.82812 200.37303,59.545928 L 200.37303,44.644501 C 200.37303,43.422065 200.17328,42.634994 199.77376,42.283288 C 199.37768,41.931581 198.50523,41.723289 197.15987,41.656704 L 197.15987,41.023291 L 206.98374,41.023291 L 206.98374,41.658412 C 205.63837,41.724997 204.76595,41.933289 204.36813,42.284995 C 203.97032,42.636702 203.77057,43.423773 203.77057,44.646209 L 203.77057,59.547634 C 203.77057,60.829826 203.96862,61.623726 204.36813,61.931044 C 204.76765,62.23836 205.63837,62.439822 206.98374,62.535432 L 206.98374,63.170551 L 197.15987,63.170551 L 197.15987,62.533725 z" />
		<path d="M 217.16443,41.023291 L 217.16443,41.658412 C 216.3176,41.668655 215.74053,41.724997 215.43149,41.820606 C 214.8954,41.994752 214.62906,42.348166 214.62906,42.87914 C 214.62906,43.150603 214.72467,43.531333 214.91419,44.019625 C 215.10371,44.509624 215.46053,45.334256 215.98296,46.495228 L 221.21416,58.151053 L 225.97413,45.52206 C 226.18243,44.967183 226.34121,44.49938 226.45048,44.118649 C 226.55804,43.737918 226.61438,43.428895 226.61438,43.189871 C 226.61438,42.549629 226.33438,42.115971 225.7778,41.887191 C 225.44829,41.757436 224.90365,41.680606 224.1456,41.658412 L 224.1456,41.023291 L 230.99534,41.023291 L 230.99534,41.658412 C 230.28509,41.754021 229.75924,41.941825 229.4212,42.21841 C 228.9073,42.633287 228.39681,43.46987 227.89486,44.726452 L 220.50904,63.582015 L 220.00709,63.582015 L 211.74029,45.165232 C 211.04372,43.632065 210.48543,42.67597 210.06714,42.300361 C 209.64885,41.924752 209.03591,41.709631 208.23008,41.656704 L 208.23008,41.023291 L 217.16443,41.023291 z" />
		<path d="M 232.2468,62.533725 C 233.48118,62.405675 234.28021,62.18714 234.64727,61.879824 C 235.01264,61.572508 235.19703,60.793973 235.19703,59.545928 L 235.19703,44.644501 C 235.19703,43.464748 235.01775,42.693043 234.6558,42.331093 C 234.29557,41.969142 233.49141,41.743777 232.2468,41.656704 L 232.2468,41.023291 L 250.0233,41.023291 L 250.17354,45.803767 L 249.31305,45.803767 C 249.03305,44.330356 248.60966,43.377675 248.04623,42.944018 C 247.48282,42.510361 246.22453,42.293532 244.27137,42.293532 L 239.68384,42.293532 C 239.18872,42.293532 238.88311,42.372068 238.76871,42.530848 C 238.65261,42.689628 238.59457,42.988408 238.59457,43.423773 L 238.59457,50.920583 L 243.74894,50.920583 C 245.16942,50.920583 246.07429,50.708876 246.46698,50.283755 C 246.85795,49.860342 247.17038,49.001564 247.4094,47.707421 L 248.19477,47.707421 L 248.19477,55.438133 L 247.4094,55.438133 C 247.16014,54.138868 246.83917,53.278382 246.4499,52.856677 C 246.05893,52.436677 245.15746,52.226678 243.74894,52.226678 L 238.59457,52.226678 L 238.59457,60.507143 C 238.59457,61.171288 238.80286,61.563971 239.22287,61.681775 C 239.64286,61.802994 240.89773,61.861043 242.99089,61.861043 C 245.25649,61.861043 246.92965,61.616897 248.00868,61.126898 C 249.08769,60.6369 250.06427,59.450318 250.94012,57.567151 L 251.85182,57.567151 L 250.36306,63.168845 L 232.24508,63.168845 L 232.24508,62.533725 L 232.2468,62.533725 z" />
		<path d="M 253.05378,62.533725 C 254.33939,62.415919 255.14012,62.164946 255.45597,61.785922 C 255.77182,61.406899 255.93059,60.52251 255.93059,59.136173 L 255.93059,44.644501 C 255.93059,43.474992 255.75303,42.710116 255.39791,42.346458 C 255.04278,41.984508 254.26084,41.754021 253.05208,41.656704 L 253.05208,41.023291 L 262.31421,41.023291 C 264.24178,41.023291 265.84836,41.269144 267.13395,41.759143 C 269.57371,42.686214 270.79443,44.391819 270.79443,46.879374 C 270.79443,48.549126 270.25321,49.82961 269.17248,50.722534 C 268.09005,51.617167 266.62005,52.20619 264.7625,52.489603 L 271.65492,60.959583 C 272.08004,61.47519 272.50686,61.849092 272.93027,62.086409 C 273.35539,62.322017 273.90003,62.472262 274.56588,62.535432 L 274.56588,63.170551 L 269.17591,63.170551 L 260.78618,52.861798 L 259.32813,52.93692 L 259.32813,59.535684 C 259.32813,60.768362 259.51595,61.548606 259.89326,61.879824 C 260.26887,62.209334 261.08666,62.427871 262.35008,62.535432 L 262.35008,63.170551 L 253.05378,63.170551 L 253.05378,62.533725 L 253.05378,62.533725 z M 264.49616,50.993997 C 266.2564,50.26156 267.13737,48.882052 267.13737,46.857179 C 267.13737,44.909135 266.34347,43.579138 264.75567,42.867189 C 263.90884,42.484751 262.78543,42.293532 261.38375,42.293532 C 260.43618,42.293532 259.85741,42.361824 259.6457,42.498409 C 259.434,42.634994 259.32643,42.955969 259.32643,43.457919 L 259.32643,51.7418 C 261.73715,51.654728 263.45983,51.405461 264.49616,50.993997 z" />
		<path d="M 277.03293,56.484715 C 277.59636,57.990565 278.25878,59.189099 279.01683,60.083731 C 280.33999,61.644214 281.98072,62.422748 283.94583,62.422748 C 285.00778,62.422748 285.92631,62.084701 286.70144,61.406899 C 287.47655,60.729095 287.8641,59.784951 287.8641,58.574467 C 287.8641,57.481787 287.47313,56.53252 286.68948,55.724961 C 286.17729,55.212767 285.10169,54.44277 283.46095,53.416674 L 280.60633,51.630825 C 279.74756,51.086193 279.06463,50.534731 278.55756,49.978146 C 277.61512,48.919613 277.14733,47.753518 277.14733,46.478155 C 277.14733,44.787916 277.70733,43.382797 278.82731,42.259385 C 279.94732,41.135974 281.43268,40.574268 283.28511,40.574268 C 284.04487,40.574268 284.96167,40.755243 286.03387,41.115486 C 287.10607,41.475729 287.71728,41.656704 287.87093,41.656704 C 288.28411,41.656704 288.57094,41.562802 288.72802,41.37329 C 288.88509,41.185486 289.008,40.917438 289.09678,40.572561 L 289.76775,40.572561 L 290.51557,47.705713 L 289.7319,47.705713 C 289.18556,45.552792 288.30971,44.048649 287.10265,43.194993 C 285.89388,42.341336 284.70218,41.916216 283.52071,41.916216 C 282.60389,41.916216 281.80316,42.185971 281.12023,42.727189 C 280.43902,43.2667 280.09586,44.017918 280.09586,44.979135 C 280.09586,45.841328 280.35537,46.578887 280.8795,47.190105 C 281.40193,47.813274 282.21292,48.462053 283.31413,49.139856 L 286.25581,50.956436 C 288.0963,52.093507 289.39556,53.133261 290.14849,54.079111 C 290.89288,55.035207 291.26166,56.165449 291.26166,57.469834 C 291.26166,59.21983 290.60263,60.68129 289.28459,61.855922 C 287.96484,63.030553 286.27802,63.616161 284.22583,63.616161 C 283.19461,63.616161 282.11901,63.41982 280.9939,63.027138 C 279.86879,62.636163 279.22513,62.438115 279.06123,62.438115 C 278.67024,62.438115 278.40732,62.564455 278.27073,62.813724 C 278.13585,63.0647 278.04537,63.33104 278.00269,63.616161 L 277.25489,63.616161 L 276.24758,56.483008 L 277.03293,56.483008 L 277.03293,56.484715 z" />
		<path d="M 294.21017,62.533725 C 295.55384,62.436407 296.42627,62.234945 296.82407,61.929335 C 297.22187,61.623726 297.42334,60.82812 297.42334,59.545928 L 297.42334,44.644501 C 297.42334,43.422065 297.22357,42.634994 296.82407,42.283288 C 296.42456,41.931581 295.55384,41.723289 294.21017,41.656704 L 294.21017,41.023291 L 304.03233,41.023291 L 304.03233,41.658412 C 302.68698,41.724997 301.81624,41.933289 301.41673,42.284995 C 301.02064,42.636702 300.81918,43.423773 300.81918,44.646209 L 300.81918,59.547634 C 300.81918,60.829826 301.01893,61.623726 301.41673,61.931044 C 301.81624,62.23836 302.68698,62.439822 304.03233,62.535432 L 304.03233,63.170551 L 294.21017,63.170551 L 294.21017,62.533725 z" />
		<path d="M 305.45453,41.023291 L 324.38858,41.023291 L 324.53882,46.700106 L 323.75347,46.700106 C 323.36078,44.914257 322.85884,43.753284 322.24933,43.213773 C 321.64322,42.67597 320.36446,42.404507 318.41301,42.404507 L 316.58446,42.404507 L 316.58446,59.547634 C 316.58446,60.829826 316.78251,61.623726 317.18204,61.931044 C 317.57813,62.23836 318.45226,62.439822 319.79593,62.535432 L 319.79593,63.170551 L 310.04889,63.170551 L 310.04889,62.535432 C 311.48302,62.427871 312.37596,62.193969 312.73108,61.83714 C 313.08278,61.480313 313.26034,60.578851 313.26034,59.137879 L 313.26034,42.406214 L 311.43181,42.406214 C 309.57597,42.406214 308.31425,42.674262 307.64158,43.206944 C 306.97061,43.739626 306.46696,44.90572 306.1272,46.700106 L 305.30598,46.700106 L 305.45453,41.023291 z" />
		<path d="M 325.76979,62.533725 C 327.0059,62.405675 327.8049,62.18714 328.17198,61.879824 C 328.53734,61.572508 328.72003,60.793973 328.72003,59.545928 L 328.72003,44.644501 C 328.72003,43.464748 328.54076,42.693043 328.17881,42.331093 C 327.81856,41.969142 327.01443,41.743777 325.76979,41.656704 L 325.76979,41.023291 L 343.54801,41.023291 L 343.69656,45.803767 L 342.83777,45.803767 C 342.55606,44.330356 342.13265,43.377675 341.56924,42.944018 C 341.00584,42.510361 339.74925,42.293532 337.79609,42.293532 L 333.20683,42.293532 C 332.71342,42.293532 332.4061,42.372068 332.29343,42.530848 C 332.17733,42.689628 332.11929,42.988408 332.11929,43.423773 L 332.11929,50.920583 L 337.27364,50.920583 C 338.69243,50.920583 339.599,50.708876 339.98997,50.283755 C 340.38095,49.860342 340.69509,49.001564 340.93242,47.707421 L 341.71778,47.707421 L 341.71778,55.438133 L 340.93242,55.438133 C 340.68314,54.138868 340.36388,53.278382 339.97291,52.856677 C 339.58194,52.436677 338.68218,52.226678 337.27364,52.226678 L 332.11929,52.226678 L 332.11929,60.507143 C 332.11929,61.171288 332.32757,61.563971 332.74756,61.681775 C 333.16758,61.802994 334.42074,61.861043 336.51389,61.861043 C 338.77949,61.861043 340.45266,61.616897 341.53167,61.126898 C 342.609,60.6369 343.58729,59.450318 344.46314,57.567151 L 345.37484,57.567151 L 343.88778,63.168845 L 325.76809,63.168845 L 325.76809,62.533725 L 325.76979,62.533725 z M 340.52266,35.501842 C 340.3468,35.708427 340.09071,35.920133 339.75437,36.136962 L 334.5983,39.379149 L 333.23927,39.379149 L 338.16487,34.4416 C 338.34243,34.267455 338.55755,34.088187 338.82046,33.905504 C 339.0817,33.719407 339.35998,33.627212 339.65534,33.627212 C 339.93876,33.627212 340.19656,33.727944 340.43218,33.929407 C 340.66778,34.130869 340.78387,34.393796 340.78387,34.719893 C 340.78387,35.034038 340.69509,35.295257 340.52266,35.501842 z" />
	</g>
	<g id="de">
		<path d="M 354.72578,62.533725 C 355.9499,62.405675 356.74722,62.18714 357.11941,61.879824 C 357.49162,61.572508 357.67601,60.793973 357.67601,59.545928 L 357.67601,44.644501 C 357.67601,43.432309 357.49672,42.652067 357.13477,42.305483 C 356.77454,41.958899 355.97039,41.743777 354.72578,41.656704 L 354.72578,41.023291 L 363.75744,41.023291 C 366.79986,41.023291 369.37448,41.523534 371.4779,42.527434 C 375.27494,44.325234 377.17006,47.540104 377.17006,52.170335 C 377.17006,53.83838 376.8303,55.422766 376.14909,56.92691 C 375.46616,58.431052 374.43837,59.699585 373.06398,60.734216 C 372.18985,61.388117 371.28496,61.883239 370.34764,62.221286 C 368.63521,62.8547 366.53011,63.170551 364.03402,63.170551 L 354.72405,63.170551 L 354.72405,62.533725 L 354.72578,62.533725 z M 361.47648,61.7108 C 361.74452,61.886653 362.29769,61.973726 363.1394,61.973726 C 365.76182,61.973726 367.91986,61.454702 369.6135,60.41495 C 372.21033,58.816905 373.5113,56.088618 373.5113,52.226678 C 373.5113,48.78132 372.44081,46.187912 370.30156,44.44816 C 368.46448,42.961091 366.035,42.216703 363.00964,42.216703 C 362.25672,42.216703 361.74622,42.298654 361.47818,42.464263 C 361.21013,42.629872 361.07868,42.990115 361.07868,43.546699 L 361.07868,60.628364 C 361.07695,61.176411 361.20843,61.536653 361.47648,61.7108 z" />
		<path d="M 378.7442,62.533725 C 379.97858,62.405675 380.77931,62.18714 381.14469,61.879824 C 381.51004,61.572508 381.69273,60.793973 381.69273,59.545928 L 381.69273,44.644501 C 381.69273,43.464748 381.51517,42.693043 381.15322,42.331093 C 380.79297,41.969142 379.98883,41.743777 378.7442,41.656704 L 378.7442,41.023291 L 396.52242,41.023291 L 396.67094,45.803767 L 395.81217,45.803767 C 395.52877,44.330356 395.10706,43.377675 394.54365,42.944018 C 393.97852,42.510361 392.72195,42.293532 390.7705,42.293532 L 386.18124,42.293532 C 385.68612,42.293532 385.38051,42.372068 385.26613,42.530848 C 385.15003,42.689628 385.09197,42.988408 385.09197,43.423773 L 385.09197,50.920583 L 390.24634,50.920583 C 391.66682,50.920583 392.57171,50.708876 392.96268,50.283755 C 393.35365,49.860342 393.6678,49.001564 393.90853,47.707421 L 394.69047,47.707421 L 394.69047,55.438133 L 393.90853,55.438133 C 393.65925,54.138868 393.33829,53.278382 392.9473,52.856677 C 392.55633,52.436677 391.65658,52.226678 390.24634,52.226678 L 385.09197,52.226678 L 385.09197,60.507143 C 385.09197,61.171288 385.30028,61.563971 385.72027,61.681775 C 386.14026,61.802994 387.39513,61.861043 389.48829,61.861043 C 391.75389,61.861043 393.42707,61.616897 394.50438,61.126898 C 395.58168,60.6369 396.55997,59.450318 397.43752,57.567151 L 398.34924,57.567151 L 396.86046,63.168845 L 378.7442,63.168845 L 378.7442,62.533725 z" />
	</g>
	<g id="sherbrooke">
		<path d="M 152.16373,102.23558 C 153.21714,105.01849 154.45323,107.238 155.87201,108.89068 C 158.34419,111.77433 161.41393,113.2153 165.08123,113.2153 C 167.06683,113.2153 168.78439,112.58701 170.23389,111.33043 C 171.6834,110.07214 172.40559,108.31702 172.40559,106.06678 C 172.40559,104.0385 171.67145,102.27143 170.20316,100.7707 C 169.24195,99.81802 167.22732,98.387292 164.15587,96.480225 L 158.81541,93.164621 C 157.20712,92.150478 155.93347,91.126091 154.99445,90.089752 C 153.25641,88.122929 152.38909,85.949519 152.38909,83.574647 C 152.38909,80.42807 153.43226,77.810758 155.5203,75.717593 C 157.60834,73.627843 160.37589,72.582966 163.82295,72.582966 C 165.24172,72.582966 166.94903,72.919308 168.94658,73.590282 C 170.94243,74.262963 172.08291,74.599305 172.36803,74.599305 C 173.13803,74.599305 173.67071,74.423449 173.96437,74.071743 C 174.25802,73.721745 174.4868,73.224917 174.64729,72.58126 L 175.91753,72.58126 L 177.26289,85.802689 L 175.76899,85.802689 C 174.75144,81.829774 173.11925,79.055391 170.87584,77.481248 C 168.62902,75.908812 166.40952,75.120035 164.21563,75.120035 C 162.5049,75.120035 161.01613,75.621983 159.7476,76.625885 C 158.47736,77.629784 157.84224,79.024659 157.84224,80.8088 C 157.84224,82.411966 158.33224,83.781232 159.31223,84.916594 C 160.29052,86.072446 161.80661,87.279516 163.86392,88.537805 L 169.35975,91.91487 C 172.79998,94.025108 175.21924,95.959493 176.61752,97.716318 C 177.99362,99.495337 178.68166,101.59704 178.68166,104.02313 C 178.68166,107.27727 177.4524,109.99702 174.99387,112.17897 C 172.53364,114.36262 169.38878,115.45359 165.56099,115.45359 C 163.63856,115.45359 161.62905,115.08652 159.53248,114.35067 C 157.4359,113.61652 156.23908,113.24945 155.93518,113.24945 C 155.20616,113.24945 154.71445,113.48335 154.46006,113.95286 C 154.20738,114.42067 154.04006,114.92091 153.95982,115.45359 L 152.61446,115.45359 L 150.74666,102.23216 L 152.16373,102.23216 L 152.16373,102.23558 z" />
		<path d="M 183.73871,113.43896 C 186.16309,113.17604 187.67918,112.7253 188.28357,112.08677 C 188.88796,111.44824 189.19186,109.7819 189.19186,107.08947 L 189.19186,80.199289 C 189.19186,77.966123 188.85381,76.514908 188.17601,75.845642 C 187.49992,75.174667 186.01968,74.759791 183.73701,74.597596 L 183.73701,73.477599 L 200.99278,73.477599 L 200.99278,74.597596 C 198.72207,74.761499 197.24524,75.176375 196.56232,75.845642 C 195.87939,76.514908 195.53793,77.966123 195.53793,80.199289 L 195.53793,92.299014 L 214.28589,92.299014 L 214.28589,80.199289 C 214.28589,77.966123 213.95296,76.514908 213.28541,75.845642 C 212.61785,75.174667 211.13421,74.759791 208.83276,74.597596 L 208.83276,73.477599 L 226.08682,73.477599 L 226.08682,74.597596 C 223.80414,74.761499 222.32561,75.176375 221.64781,75.845642 C 220.97173,76.514908 220.63196,77.966123 220.63196,80.199289 L 220.63196,107.83727 C 220.63196,110.09946 220.97,111.54726 221.64781,112.18238 C 222.32561,112.8175 223.80414,113.2375 226.08682,113.43896 L 226.08682,114.55896 L 208.83616,114.55896 L 208.83616,113.43896 C 211.28103,113.19652 212.79883,112.75091 213.39468,112.10213 C 213.99223,111.45506 214.28932,109.78361 214.28932,107.08947 L 214.28932,95.063153 L 195.54134,95.063153 L 195.54134,107.83556 C 195.54134,110.09775 195.8811,111.55067 196.56573,112.19604 C 197.24695,112.84311 198.72547,113.25628 200.9962,113.43896 L 200.9962,114.55896 L 183.73871,114.55896 L 183.73871,113.43896 z" />
		<path d="M 229.11558,113.43896 C 231.39654,113.19652 232.8768,112.78848 233.5546,112.21311 C 234.2324,111.63775 234.56874,110.1797 234.56874,107.83727 L 234.56874,80.199289 C 234.56874,77.98832 234.23581,76.540519 233.56996,75.861009 C 232.90239,75.181496 231.41703,74.759791 229.11729,74.597596 L 229.11729,73.477599 L 262.13325,73.477599 L 262.43203,82.365869 L 260.863,82.365869 C 260.33544,79.637583 259.54667,77.87393 258.49498,77.069784 C 257.44157,76.269055 255.09401,75.866129 251.45232,75.866129 L 242.93966,75.866129 C 242.02286,75.866129 241.45603,76.012959 241.24089,76.304908 C 241.02578,76.598568 240.91992,77.148321 240.91992,77.952465 L 240.91992,91.776578 L 250.48086,91.776578 C 253.11865,91.776578 254.79865,91.383896 255.52596,90.595117 C 256.24987,89.806338 256.83376,88.208293 257.27594,85.800983 L 258.76985,85.800983 L 258.76985,100.21753 L 257.27594,100.21753 C 256.81327,97.798269 256.22083,96.198518 255.49522,95.41486 C 254.76961,94.631204 253.09816,94.24023 250.47916,94.24023 L 240.91821,94.24023 L 240.91821,109.58044 C 240.91821,110.81141 241.30748,111.53701 242.08602,111.75897 C 242.86454,111.98092 245.19503,112.09189 249.08258,112.09189 C 253.29108,112.09189 256.39669,111.64116 258.39937,110.73799 C 260.40374,109.83482 262.22373,107.64776 263.86446,104.17338 L 265.56836,104.17338 L 262.78886,114.55725 L 229.11558,114.55725 L 229.11558,113.43896 z" />
		<path d="M 267.44982,113.43896 C 269.85371,113.21701 271.3493,112.75091 271.94175,112.04238 C 272.53247,111.33385 272.82953,109.68458 272.82953,107.09117 L 272.82953,80.200997 C 272.82953,78.008808 272.49832,76.572957 271.83588,75.893447 C 271.17344,75.215643 269.71199,74.783693 267.45152,74.599305 L 267.45152,73.479307 L 284.69023,73.479307 C 288.27728,73.479307 291.26677,73.935159 293.65702,74.843449 C 298.19675,76.561007 300.46746,79.724657 300.46746,84.332694 C 300.46746,87.426343 299.45845,89.799509 297.44383,91.45731 C 295.42919,93.11511 292.69067,94.206084 289.22654,94.730229 L 302.02282,110.46312 C 302.80989,111.43628 303.59696,112.14311 304.38575,112.59043 C 305.17282,113.03603 306.18354,113.31945 307.41451,113.44238 L 307.41451,114.56237 L 297.41139,114.56237 L 281.8595,95.440471 L 279.18073,95.589007 L 279.18073,107.82361 C 279.18073,110.1319 279.53073,111.59506 280.22732,112.2114 C 280.92561,112.82945 282.44852,113.24091 284.79437,113.44238 L 284.79437,114.56237 L 267.45493,114.56237 L 267.45493,113.43896 L 267.44982,113.43896 z M 288.75021,92.001942 C 292.02995,90.642922 293.66896,88.085368 293.66896,84.329279 C 293.66896,80.716606 292.19555,78.251245 289.25215,76.931492 C 287.67801,76.22125 285.58997,75.866129 282.98973,75.866129 C 281.23463,75.866129 280.16073,75.994178 279.76635,76.245153 C 279.37365,76.497835 279.17561,77.090272 279.17561,78.020758 L 279.17561,93.345598 C 283.64022,93.190232 286.8312,92.742916 288.75021,92.001942 z" />
		<path d="M 309.14913,113.43896 C 311.65718,113.29725 313.28083,112.90799 314.02009,112.27287 C 314.75594,111.63775 315.12472,110.15921 315.12472,107.83727 L 315.12472,80.199289 C 315.12472,77.906368 314.75423,76.429544 314.02009,75.770519 C 313.28083,75.111497 311.65718,74.720523 309.14913,74.597596 L 309.14913,73.477599 L 326.58588,73.477599 C 331.56782,73.477599 335.52024,74.274913 338.44828,75.871252 C 341.3729,77.467589 342.83607,80.212947 342.83607,84.110742 C 342.83607,87.040491 341.80997,89.261706 339.7595,90.774385 C 338.60193,91.6417 336.86561,92.360478 334.54877,92.925598 C 337.41023,93.613646 339.85339,94.76096 341.88339,96.369248 C 343.91167,97.977537 344.92751,100.22948 344.92751,103.12167 C 344.92751,107.97727 342.67899,111.31336 338.18536,113.13506 C 335.8156,114.08603 332.89781,114.56067 329.4388,114.56067 L 309.14743,114.56067 L 309.14743,113.43896 L 309.14913,113.43896 z M 332.55294,90.847799 C 335.17537,89.630485 336.48999,87.44854 336.48999,84.303669 C 336.48999,80.590264 334.97561,78.08393 331.94856,76.784665 C 330.27368,76.074423 327.72978,75.7193 324.32028,75.7193 C 323.02787,75.7193 322.23054,75.830277 321.93005,76.053935 C 321.62616,76.275885 321.47421,76.883687 321.47421,77.877345 L 321.47421,91.92682 L 327.37638,91.8517 C 329.45246,91.81243 331.18025,91.477797 332.55294,90.847799 z M 334.67,110.46653 C 336.82803,109.23214 337.90706,106.8641 337.90706,103.3624 C 337.90706,99.88119 336.64537,97.502904 334.12025,96.229249 C 331.59514,94.953887 328.37856,94.31535 324.46883,94.31535 C 323.51102,94.31535 322.90494,94.31535 322.65055,94.31535 C 322.39787,94.31535 322.00347,94.306815 321.47591,94.284619 L 321.47591,109.76653 C 321.47591,110.84043 321.78323,111.5336 322.39274,111.84604 C 323.00225,112.15848 324.42102,112.31555 326.63711,112.31555 C 329.8332,112.31896 332.51196,111.70263 334.67,110.46653 z" />
		<path d="M 350.227,113.43896 C 352.62918,113.21701 354.1265,112.75091 354.71895,112.04238 C 355.30797,111.33385 355.60673,109.68458 355.60673,107.09117 L 355.60673,80.200997 C 355.60673,78.008808 355.27382,76.572957 354.61138,75.893447 C 353.94894,75.215643 352.48919,74.783693 350.22872,74.599305 L 350.22872,73.479307 L 367.4657,73.479307 C 371.05448,73.479307 374.04227,73.935159 376.4342,74.843449 C 380.97395,76.561007 383.24466,79.724657 383.24466,84.332694 C 383.24466,87.426343 382.23395,89.799509 380.22103,91.45731 C 378.20469,93.11511 375.46446,94.206084 372.00203,94.730229 L 384.79831,110.46312 C 385.58539,111.43628 386.37246,112.14311 387.16123,112.59043 C 387.9483,113.03603 388.95733,113.31945 390.19001,113.44238 L 390.19001,114.56237 L 380.18688,114.56237 L 364.63499,95.440471 L 361.95623,95.589007 L 361.95623,107.82361 C 361.95623,110.1319 362.30452,111.59506 363.00451,112.2114 C 363.7011,112.82945 365.22231,113.24091 367.56986,113.44238 L 367.56986,114.56237 L 350.23042,114.56237 L 350.23042,113.43896 L 350.227,113.43896 z M 371.52741,92.001942 C 374.80544,90.642922 376.44445,88.085368 376.44445,84.329279 C 376.44445,80.716606 374.97275,78.251245 372.02935,76.931492 C 370.45521,76.22125 368.36717,75.866129 365.76523,75.866129 C 364.01182,75.866129 362.93792,75.994178 362.54355,76.245153 C 362.15085,76.497835 361.9528,77.090272 361.9528,78.020758 L 361.9528,93.345598 C 366.41742,93.190232 369.60838,92.742916 371.52741,92.001942 z" />
		<path d="M 397.08412,78.073686 C 400.90508,74.411499 405.60702,72.58126 411.19161,72.58126 C 416.79159,72.58126 421.50378,74.423449 425.32643,78.102709 C 429.47177,82.087577 431.54615,87.39732 431.54615,94.033645 C 431.54615,100.7707 429.40007,106.12996 425.11473,110.11482 C 421.27158,113.67457 416.62941,115.4553 411.19161,115.4553 C 405.36799,115.4553 400.53287,113.48335 396.68973,109.53775 C 392.78852,105.51362 390.83537,100.34387 390.83537,94.031937 C 390.83537,87.399028 392.91658,82.079041 397.08412,78.073686 z M 401.71777,108.52702 C 404.29409,111.65311 407.45261,113.2153 411.20699,113.2153 C 414.87428,113.2153 418.0106,111.69238 420.61597,108.64824 C 423.22131,105.60239 424.524,100.73143 424.524,94.033645 C 424.524,87.255613 423.20765,82.35904 420.57157,79.343925 C 417.93548,76.328811 414.81454,74.821254 411.20869,74.821254 C 407.47652,74.821254 404.3197,76.385153 401.73483,79.511243 C 399.15168,82.637332 397.85754,87.477563 397.85754,94.033645 C 397.85581,100.56924 399.14312,105.40093 401.71777,108.52702 z" />
		<path d="M 441.96416,78.073686 C 445.78342,74.411499 450.48705,72.58126 456.06997,72.58126 C 461.67164,72.58126 466.38381,74.423449 470.20477,78.102709 C 474.35183,82.087577 476.42451,87.39732 476.42451,94.033645 C 476.42451,100.7707 474.28011,106.12996 469.99306,110.11482 C 466.14992,113.67457 461.50944,115.4553 456.06997,115.4553 C 450.24633,115.4553 445.41123,113.48335 441.56979,109.53775 C 437.66858,105.51362 435.7154,100.34387 435.7154,94.031937 C 435.7154,87.399028 437.79661,82.079041 441.96416,78.073686 z M 446.5978,108.52702 C 449.17243,111.65311 452.33266,113.2153 456.08533,113.2153 C 459.75434,113.2153 462.89066,111.69238 465.49601,108.64824 C 468.09967,105.60239 469.40404,100.73143 469.40404,94.033645 C 469.40404,87.255613 468.08601,82.35904 465.45163,79.343925 C 462.81554,76.328811 459.69458,74.821254 456.08703,74.821254 C 452.35656,74.821254 449.19974,76.385153 446.61487,79.511243 C 444.03001,82.637332 442.73757,87.477563 442.73757,94.033645 C 442.73587,100.56924 444.02318,105.40093 446.5978,108.52702 z" />
		<path d="M 479.32694,113.43896 C 481.85375,113.2375 483.42106,112.78677 484.02885,112.08848 C 484.63666,111.39019 484.93885,109.72726 484.93885,107.09629 L 484.93885,80.180509 C 484.93885,77.935394 484.60081,76.484176 483.92301,75.826862 C 483.24521,75.169546 481.71204,74.759791 479.32694,74.597596 L 479.32694,73.477599 L 497.05393,73.477599 L 497.05393,74.597596 C 494.62612,74.718815 493.05881,75.121741 492.35029,75.806374 C 491.64347,76.492714 491.28834,77.943929 491.28834,80.160021 L 491.28834,92.857306 C 495.12466,89.613412 498.26099,86.852687 500.69902,84.57684 C 505.06122,80.445143 507.24485,77.793685 507.24485,76.624176 C 507.24485,75.797837 506.87266,75.254912 506.13169,74.991985 C 505.39072,74.730767 504.34072,74.599305 502.98171,74.599305 L 502.98171,73.479307 L 519.30016,73.479307 L 519.30016,74.599305 C 517.30773,74.795644 515.73701,75.17979 514.58799,75.748325 C 513.43897,76.31686 511.84947,77.564906 509.81436,79.490755 L 497.67197,90.704386 L 512.50508,106.67971 C 515.1992,109.54458 517.03115,111.33214 518.00602,112.04238 C 518.97748,112.75433 520.40651,113.22043 522.28967,113.43896 L 522.28967,114.55896 L 503.26341,114.55896 L 503.26341,113.43896 C 504.98437,113.3775 506.14705,113.24091 506.75656,113.02921 C 507.36267,112.8175 507.66826,112.39579 507.66826,111.7675 C 507.66826,111.42433 507.47021,110.89677 507.07584,110.18653 C 506.67974,109.47629 506.05487,108.65678 505.20461,107.72459 L 493.21931,94.813886 L 491.28834,96.596321 L 491.28834,107.82532 C 491.28834,110.1336 491.63834,111.59506 492.33493,112.2114 C 493.03322,112.82774 494.55613,113.2392 496.90198,113.44067 L 496.90198,114.56067 L 479.32694,114.56067 L 479.32694,113.43896 z" />
		<path d="M 523.83307,113.43896 C 526.11405,113.19652 527.59258,112.78848 528.27038,112.21311 C 528.94818,111.63775 529.28622,110.1797 529.28622,107.83727 L 529.28622,80.199289 C 529.28622,77.98832 528.95329,76.540519 528.28574,75.861009 C 527.61817,75.181496 526.13454,74.759791 523.83479,74.597596 L 523.83479,73.477599 L 556.84903,73.477599 L 557.14781,82.365869 L 555.5805,82.365869 C 555.05295,79.637583 554.26415,77.87393 553.21076,77.069784 C 552.15905,76.269055 549.8115,75.866129 546.1664,75.866129 L 537.65717,75.866129 C 536.73692,75.866129 536.17181,76.012959 535.95667,76.304908 C 535.74326,76.598568 535.6357,77.148321 535.6357,77.952465 L 535.6357,91.776578 L 545.19664,91.776578 C 547.83443,91.776578 549.51614,91.383896 550.24174,90.595117 C 550.96735,89.806338 551.55124,88.208293 551.99344,85.800983 L 553.48734,85.800983 L 553.48734,100.21753 L 551.99344,100.21753 C 551.53076,97.798269 550.93661,96.198518 550.211,95.41486 C 549.48539,94.631204 547.81394,94.24023 545.19494,94.24023 L 535.634,94.24023 L 535.634,109.58044 C 535.634,110.81141 536.02326,111.53701 536.8018,111.75897 C 537.58204,111.98092 539.91251,112.09189 543.79836,112.09189 C 548.00686,112.09189 551.11247,111.64116 553.11515,110.73799 C 555.11952,109.83482 556.93951,107.64776 558.58024,104.17338 L 560.28414,104.17338 L 557.50464,114.55725 L 523.83307,114.55725 L 523.83307,113.43896 L 523.83307,113.43896 z" />
	</g>
</svg>